<svg xmlns="http://www.w3.org/2000/svg" viewBox="0 0 66.53 19.33"><defs><style>.cls-1{fill:#30c4ec;fill-rule:evenodd;}.cls-2{fill:#44484d;}.cls-3{fill:#6b6f76;}</style></defs><g id="Layer_2" data-name="Layer 2"><g id="Layer_1-2" data-name="Layer 1"><path class="cls-1" d="M17,0H2.83A2.83,2.83,0,0,0,0,2.83V16.5a2.83,2.83,0,0,0,2.83,2.83H17a2.83,2.83,0,0,0,2.83-2.83V2.83A2.83,2.83,0,0,0,17,0ZM2.15,8.12,5.8,4.48,9.45,8.13,5.8,11.78ZM9.9,15.86,6.25,12.2,9.91,8.56l3.64,3.65ZM14,11.79,10.38,8.14,14,4.49l3.65,3.65Z"/><path class="cls-2" d="M26.36,5a1.21,1.21,0,0,1-.34.86,1.13,1.13,0,0,1-1.65,0A1.25,1.25,0,0,1,24,4.94a1.18,1.18,0,0,1,.34-.85A1.14,1.14,0,0,1,26,4.1,1.25,1.25,0,0,1,26.36,5Zm-.25,9.41H24.28V6.84h1.83Z"/><path class="cls-2" d="M34.46,14.38H32.63v-.8a3.12,3.12,0,0,1-4.74-.21,4.17,4.17,0,0,1-1-2.75,4.27,4.27,0,0,1,.91-2.76,3.14,3.14,0,0,1,4.79-.19V3.93h1.83ZM32.72,10.6A2.26,2.26,0,0,0,32.17,9a2,2,0,0,0-2.89,0,2.31,2.31,0,0,0-.52,1.55,2.31,2.31,0,0,0,.53,1.56,1.78,1.78,0,0,0,1.44.68,1.82,1.82,0,0,0,1.46-.66A2.39,2.39,0,0,0,32.72,10.6Z"/><path class="cls-2" d="M43.33,10.62a4.22,4.22,0,0,1-.95,2.75,3.14,3.14,0,0,1-4.76.21v.8H35.81V3.93h1.81V7.67a3.12,3.12,0,0,1,2.3-1,3,3,0,0,1,2.5,1.21A4.27,4.27,0,0,1,43.33,10.62Zm-1.82,0A2.27,2.27,0,0,0,41,9.05a1.78,1.78,0,0,0-1.43-.65A1.83,1.83,0,0,0,38.08,9a2.28,2.28,0,0,0-.54,1.56,2.39,2.39,0,0,0,.53,1.58,1.83,1.83,0,0,0,1.47.66A1.78,1.78,0,0,0,41,12.16,2.31,2.31,0,0,0,41.51,10.6Z"/><path class="cls-3" d="M50.72,14.12a5.2,5.2,0,0,1-2.13.38,3.78,3.78,0,0,1-4-4.09,4,4,0,0,1,4.23-4.25,4.25,4.25,0,0,1,1.92.37l-.26.85A3.66,3.66,0,0,0,48.85,7a3,3,0,0,0-3.15,3.33,2.94,2.94,0,0,0,3.1,3.25,4.27,4.27,0,0,0,1.71-.33Z"/><path class="cls-3" d="M52,6.41a10.77,10.77,0,0,1,2-.17,3.31,3.31,0,0,1,2.34.66A2,2,0,0,1,57,8.43a2.13,2.13,0,0,1-1.52,2.07v0a2,2,0,0,1,1.19,1.63,12.33,12.33,0,0,0,.62,2.22H56.22a10.79,10.79,0,0,1-.54-1.93c-.24-1.12-.67-1.54-1.62-1.57h-1v3.5H52Zm1,3.68h1.07c1.11,0,1.82-.61,1.82-1.54S55.21,7.05,54.11,7a4.15,4.15,0,0,0-1,.1Z"/><path class="cls-3" d="M65.3,10.83c-.06-1.13-.13-2.48-.12-3.49h0c-.28.95-.61,2-1,3.07L62.7,14.33h-.79L60.6,10.48c-.38-1.14-.71-2.18-.93-3.14h0c0,1-.08,2.36-.15,3.57l-.22,3.47h-1l.57-8.08h1.33l1.38,3.91c.33,1,.61,1.88.81,2.72h0c.2-.82.49-1.7.85-2.72L64.69,6.3H66l.51,8.08h-1Z"/></g></g></svg>