<svg id="Layer_1" data-name="Layer 1" xmlns="http://www.w3.org/2000/svg" viewBox="0 0 17.23 19"><defs><style>.cls-1{fill:#c5d5fb;fill-rule:evenodd;}</style></defs><path class="cls-1" d="M16.07,4A5.37,5.37,0,0,0,12.15,2.5,5.38,5.38,0,0,0,8.23,4,5.59,5.59,0,0,0,6.74,8a5.15,5.15,0,0,0,2.11,4.41,5.64,5.64,0,0,0,.7.42,7.93,7.93,0,0,0-3.23,1.76,11.22,11.22,0,0,0-2.78,4.22.5.5,0,1,0,.92.38A10.23,10.23,0,0,1,7,15.34a7.39,7.39,0,0,1,5.16-1.84,7.44,7.44,0,0,1,4.92,1.63,9.38,9.38,0,0,1,2.54,3.52,1.35,1.35,0,0,1-1.33,1.85H6.74a.5.5,0,0,0,0,1H18.28a2.36,2.36,0,0,0,2.25-3.25,10.56,10.56,0,0,0-2.82-3.89,7.8,7.8,0,0,0-2.89-1.51,5,5,0,0,0,1.51-1.29A6,6,0,0,0,17.57,8,5.56,5.56,0,0,0,16.07,4Zm-.71.71A4.55,4.55,0,0,1,16.57,8a4.94,4.94,0,0,1-1,2.94,4.08,4.08,0,0,1-3.39,1.56,5,5,0,0,1-2.72-.91A4.14,4.14,0,0,1,7.74,8a4.54,4.54,0,0,1,1.2-3.27A4.38,4.38,0,0,1,12.15,3.5,4.38,4.38,0,0,1,15.36,4.73Z" transform="translate(-3.5 -2.5)"/></svg>